<?xml version="1.0" standalone="no"?>
<!DOCTYPE svg PUBLIC "-//W3C//DTD SVG 20010904//EN"
 "http://www.w3.org/TR/2001/REC-SVG-20010904/DTD/svg10.dtd">
<svg version="1.0" xmlns="http://www.w3.org/2000/svg"
 width="626.000000pt" height="626.000000pt" viewBox="0 0 626.000000 626.000000"
 preserveAspectRatio="xMidYMid meet">
<metadata>
Created by potrace 1.14, written by Peter Selinger 2001-2017
</metadata>
<g transform="translate(0.000000,626.000000) scale(0.100000,-0.100000)"
fill="#000000" stroke="none">
<path d="M0 3130 l0 -3130 3130 0 3130 0 0 3130 0 3130 -3130 0 -3130 0 0
-3130z m903 2013 c203 -23 551 -23 785 1 273 28 361 6 443 -112 41 -58 54 -95
193 -564 52 -174 102 -338 110 -365 8 -26 31 -102 51 -168 20 -66 52 -169 70
-230 19 -60 66 -216 105 -345 79 -261 130 -428 165 -540 13 -41 42 -136 64
-210 22 -74 59 -196 82 -270 23 -74 66 -216 96 -315 68 -225 78 -240 107 -162
9 23 68 209 131 412 64 204 138 440 165 525 85 270 167 530 213 680 25 80 68
217 96 305 27 88 72 232 100 320 79 256 110 353 146 465 18 58 52 166 76 240
90 289 149 346 354 344 55 -1 131 -9 169 -18 188 -45 503 -43 781 5 220 38
370 2 412 -98 17 -43 20 -137 4 -184 -13 -41 -54 -83 -94 -98 -39 -15 -165
-13 -267 3 -223 37 -350 -65 -381 -303 -13 -108 -13 -2504 1 -2601 19 -137 73
-235 154 -281 47 -27 125 -30 298 -12 210 22 297 -29 299 -174 2 -111 -27
-165 -111 -209 -46 -24 -194 -24 -410 0 -90 10 -270 20 -430 23 -253 5 -294 3
-515 -22 -281 -32 -370 -30 -435 6 -64 35 -85 77 -85 169 0 86 17 125 69 165
48 36 124 46 306 39 l155 -6 42 31 c48 35 95 111 119 191 44 149 46 178 54
745 16 1054 22 2169 12 2184 -23 33 -42 -2 -103 -191 -34 -106 -81 -254 -106
-328 -25 -74 -55 -169 -68 -210 -25 -83 -275 -863 -305 -950 -18 -55 -31 -93
-180 -560 -45 -140 -106 -329 -135 -420 -30 -91 -93 -286 -141 -435 -97 -300
-115 -344 -171 -397 -63 -61 -121 -81 -250 -86 -180 -7 -264 31 -322 146 -26
52 -86 234 -218 657 -13 44 -35 112 -48 150 -13 39 -44 138 -70 220 -25 83
-53 168 -60 190 -8 22 -35 108 -60 190 -26 83 -53 168 -60 190 -8 22 -37 114
-65 205 -70 222 -128 406 -145 455 -7 22 -37 114 -65 205 -295 939 -309 980
-331 980 -18 0 -19 -10 -19 -272 0 -150 5 -565 10 -923 28 -1697 27 -1676 45
-1748 18 -73 63 -148 108 -181 30 -23 53 -24 302 -15 89 3 119 1 157 -14 87
-34 125 -109 114 -225 -11 -122 -70 -171 -215 -179 -65 -4 -139 3 -301 27
-203 30 -231 31 -490 31 -151 -1 -300 -5 -330 -10 -30 -6 -104 -19 -165 -30
-204 -38 -321 -25 -392 43 -55 53 -72 111 -56 191 30 143 113 175 364 141 61
-9 123 -11 149 -7 103 16 179 90 217 209 17 54 18 130 18 1402 l0 1345 -24 69
c-45 131 -135 196 -271 196 -41 0 -93 -5 -115 -10 -22 -5 -79 -10 -128 -11
-73 0 -94 3 -130 23 -58 32 -82 82 -81 173 1 144 76 205 262 214 18 0 97 -7
175 -16z"/>
</g>
</svg>
